<svg version="1.1" id="Layer_1" xmlns:x="ns_extend;" xmlns:i="ns_ai;" xmlns:graph="ns_graphs;" xmlns="http://www.w3.org/2000/svg" xmlns:xlink="http://www.w3.org/1999/xlink" x="0px" y="0px" viewBox="0 0 63.6 63.6" style="enable-background:new 0 0 63.6 63.6;" xml:space="preserve">
 <style type="text/css">
  .st0{fill-rule:evenodd;clip-rule:evenodd;fill:#FFFFFF;}
	.st1{fill-rule:evenodd;clip-rule:evenodd;fill:#1A8CFF;}
	.st2{opacity:0.5;enable-background:new    ;}
	.st3{fill-rule:evenodd;clip-rule:evenodd;fill-opacity:5.244755e-02;}
	.st4{opacity:0.2561;enable-background:new    ;}
	.st5{fill-opacity:0.25;}
	.st6{fill-rule:evenodd;clip-rule:evenodd;fill:#F7F7F7;}
	.st7{fill-rule:evenodd;clip-rule:evenodd;fill-opacity:5.000000e-02;}
	.st8{fill:#FFFFFF;}
	.st9{fill-opacity:0.15;}
	.st10{fill-rule:evenodd;clip-rule:evenodd;fill:#0A2D4D;}
	.st11{fill-opacity:0.4;}
 </style>
 <metadata>
  <sfw xmlns="ns_sfw;">
   <slices>
   </slices>
   <sliceSourceBounds bottomLeftOrigin="true" height="63.6" width="63.6" x="230.9" y="0">
   </sliceSourceBounds>
  </sfw>
 </metadata>
 <g id="_x31_Password-wordmark-_x2F_-Black_x2C_-detailed-icon-_x2F_-1P-wordmark">
  <g id="_x31_Password-logo-2020-_x2F_-coloured-_x2F_-light-bg-_x2F_-116px" transform="translate(421.000000, 12.000000)">
   <g>
    <g id="lock">
     <g id="Chrome">
      <path id="chrome" class="st0" d="M-419.9,19.8c0,17,13.7,30.7,30.7,30.7s30.7-13.7,30.7-30.7s-13.7-30.7-30.7-30.7
						S-419.9,2.8-419.9,19.8z">
      </path>
      <path id="color" class="st1" d="M-389.2-4.3c13.3,0,24.1,10.8,24.1,24.1s-10.8,24.1-24.1,24.1c-13.3,0-24.1-10.8-24.1-24.1
						C-413.4,6.5-402.5-4.3-389.2-4.3">
      </path>
      <path id="chrome_1_" class="st2" d="M-421,19.8c0,17.6,14.2,31.8,31.8,31.8c17.6,0,31.8-14.2,31.8-31.8S-371.6-12-389.2-12
						C-406.8-12-421,2.2-421,19.8L-421,19.8z M-419.9,19.8L-419.9,19.8c0-17,13.7-30.7,30.7-30.7s30.7,13.8,30.7,30.7
						c0,17-13.7,30.7-30.7,30.7S-419.9,36.8-419.9,19.8L-419.9,19.8z">
      </path>
      <path id="shadows" class="st3" d="M-358.6,18.1c0,0.5,0,1.1,0,1.6c0,17-13.7,30.7-30.7,30.7s-30.6-13.6-30.6-30.6
						c0-0.6,0-1.1,0-1.6c0.9,16.2,14.3,29.1,30.7,29.1c16.3,0,29.6-12.7,30.6-28.7L-358.6,18.1z M-389.2-7.6
						c14.8,0,26.9,12,26.9,26.9c0,8.3-3.8,15.7-9.7,20.6c4.9-4.6,8-11.2,8-18.5c0-13.9-11.3-25.2-25.2-25.2
						c-13.9,0-25.2,11.3-25.2,25.2c0,7.3,3.1,13.8,8,18.5c-5.9-4.9-9.7-12.3-9.7-20.6C-416.1,4.4-404.1-7.6-389.2-7.6z">
      </path>
     </g>
     <path id="inside-shadow-outer" class="st4" d="M-389.2-4.3c13.3,0,24.1,10.8,24.1,24.1s-10.8,24.1-24.1,24.1
					c-13.2,0-23.9-10.6-24.1-23.7v-0.4C-413.4,6.5-402.6-4.3-389.2-4.3z M-389.2-3.2c-12.7,0-23,10.3-23,23s10.3,23,23,23
					c12.7,0,23-10.3,23-23S-376.5-3.2-389.2-3.2z">
     </path>
     <path id="inside-shadow" class="st5" d="M-389.1,0.6c-10.7,0-19.3,8.6-19.3,19.3c0,10.5,8.6,19.1,19.3,19.1
					c10.5,0,19.1-8.6,19.1-19.1C-370,9.2-378.6,0.6-389.1,0.6z M-389.1,1.7c9.9,0,18,8.1,18,18.2c0,9.9-8.1,18-18,18
					c-10.1,0-18.2-8.1-18.2-18C-407.3,9.8-399.2,1.7-389.1,1.7z">
     </path>
     <path id="inside" class="st6" d="M-389.1,1.7c9.9,0,18,8.1,18,18.2c0,9.9-8.1,18-18,18c-10.1,0-18.2-8.1-18.2-18
					C-407.3,9.8-399.2,1.7-389.1,1.7L-389.1,1.7z">
     </path>
     <g id="bevel" transform="translate(41.000000, 41.000000)">
      <path class="st7" d="M-422-21.2c0,4.5-3.7,8.2-8.2,8.2s-8.2-3.7-8.2-8.2s3.7-8.2,8.2-8.2S-422-25.7-422-21.2z">
      </path>
      <path id="bevel-outside" class="st8" d="M-430.2-30.5c-5.1,0-9.3,4.2-9.3,9.3s4.2,9.3,9.3,9.3c5.1,0,9.3-4.2,9.3-9.3
						S-425.1-30.5-430.2-30.5z M-430.2-29.4c4.5,0,8.2,3.7,8.2,8.2s-3.7,8.2-8.2,8.2s-8.2-3.7-8.2-8.2S-434.8-29.4-430.2-29.4z">
      </path>
      <path id="bevel-inside" class="st9" d="M-430.2-29.4c4.5,0,8.2,3.7,8.2,8.2s-3.7,8.2-8.2,8.2s-8.2-3.7-8.2-8.2
						S-434.8-29.4-430.2-29.4z M-430.2-28.3c-3.9,0-7.1,3.2-7.1,7.1s3.2,7.1,7.1,7.1c3.9,0,7.1-3.2,7.1-7.1S-426.3-28.3-430.2-28.3z
						">
      </path>
     </g>
    </g>
    <g id="keyhole" transform="translate(48.000000, 32.000000)">
     <path id="keyhole-outer" class="st8" d="M-434.2-26.5h-6.1c-1.4,0-2.4,1.2-2.4,2.6v5.9c0,0.5,0.2,1.1,0.5,1.4l0.9,1v0.1l-0.9,1
					c-0.4,0.4-0.5,0.9-0.5,1.4v12.5c0,1.4,1.1,2.6,2.4,2.6h6.1c1.4,0,2.4-1.2,2.4-2.6v-5.9c0-0.5-0.2-1.1-0.5-1.4l-0.9-1V-9l0.9-1
					c0.4-0.4,0.5-0.9,0.5-1.4v-12.4C-431.7-25.3-432.8-26.5-434.2-26.5z M-434.2-25.3c0.8,0,1.4,0.7,1.4,1.6v12.3
					c0,0.3-0.1,0.5-0.3,0.7l-0.9,1c-0.4,0.4-0.4,1.1,0,1.5l0.9,1c0.2,0.2,0.3,0.5,0.3,0.7v5.9c0,0.9-0.6,1.6-1.4,1.6h-6
					c-0.8,0-1.4-0.7-1.4-1.6v-12.3c0-0.3,0.1-0.5,0.3-0.7l0.9-1c0.4-0.4,0.4-1.1,0-1.5l-0.9-1c-0.2-0.2-0.3-0.5-0.3-0.7v-5.9
					c0-0.9,0.6-1.6,1.4-1.6H-434.2z">
     </path>
     <path class="st10" d="M-441.6-17.9v-5.9c0-0.9,0.6-1.6,1.4-1.6h6c0.8,0,1.4,0.7,1.4,1.6v12.3c0,0.3-0.1,0.5-0.3,0.7l-0.9,1
					c-0.4,0.4-0.4,1.1,0,1.5l0.9,1c0.2,0.2,0.3,0.5,0.3,0.7v5.9c0,0.9-0.6,1.6-1.4,1.6h-6c-0.8,0-1.4-0.7-1.4-1.6v-12.2
					c0-0.3,0.1-0.5,0.3-0.7l0.9-1c0.4-0.4,0.4-1.1,0-1.5l-0.9-1C-441.5-17.3-441.6-17.6-441.6-17.9z">
     </path>
     <path id="keyhole-shadow" class="st11" d="M-434.2-25.4c0.8,0,1.4,0.7,1.4,1.6v12.3c0,0.3-0.1,0.5-0.3,0.7l-0.9,1
					c-0.4,0.4-0.4,1.1,0,1.5l0.9,1c0.2,0.2,0.3,0.5,0.3,0.7v5.9c0,0.9-0.6,1.6-1.4,1.6h-6c-0.8,0-1.4-0.7-1.4-1.6v-12.2
					c0-0.3,0.1-0.5,0.3-0.7l0.9-1c0.4-0.4,0.4-1.1,0-1.5l-0.9-1c-0.2-0.2-0.3-0.5-0.3-0.7v-5.9c0-0.9,0.6-1.6,1.4-1.6h6V-25.4z
					 M-434.4-24.2h-5.7c-0.2,0-0.4,0.2-0.5,0.5v0.1v5.8l0,0l0,0l0.9,1c0.7,0.8,0.7,2,0.1,2.8l-0.1,0.1l-0.9,1l0,0l0,0v12.2
					c0,0.3,0.2,0.5,0.4,0.6l0,0h5.7c0.2,0,0.4-0.2,0.5-0.5v-0.1v-5.8l0,0l0,0l-0.9-1c-0.7-0.8-0.7-2-0.1-2.8l0.1-0.1l0.9-1l0,0l0,0
					v-12.2C-433.9-24-434.1-24.2-434.4-24.2L-434.4-24.2z">
     </path>
    </g>
   </g>
  </g>
 </g>
</svg>