<svg version="1.1" id="Layer_1" xmlns:x="ns_extend;" xmlns:i="ns_ai;" xmlns:graph="ns_graphs;" xmlns="http://www.w3.org/2000/svg" xmlns:xlink="http://www.w3.org/1999/xlink" x="0px" y="0px" viewBox="0 0 55.6 75" style="enable-background:new 0 0 55.6 75;" xml:space="preserve">
 <style type="text/css">
  .st0{fill:#09363F;}
 </style>
 <metadata>
  <sfw xmlns="ns_sfw;">
   <slices>
   </slices>
   <sliceSourceBounds bottomLeftOrigin="true" height="75" width="55.6" x="-224.2" y="-211">
   </sliceSourceBounds>
  </sfw>
 </metadata>
 <g>
  <path class="st0" d="M55.6,24.1c0-0.5-0.5-0.9-1.1-1.1l-7.8-2.9c-1.3-0.6-2.8,0.1-2.8,1v32.8c0,0.5,0.5,1,0.9,1.2l8,2.9
		c1.2,0.5,2.8-0.2,2.8-1.2V24.1z M40.9,12.7c0-0.5-0.5-0.9-1.1-1.1L32,8.7c-1.3-0.6-2.8,0.1-2.8,1v19.9c0,0.5,0.5,1,0.9,1.2l8,2.9
		c1.2,0.5,2.8-0.2,2.8-1.2V12.7z M40.9,48.5c0-0.5-0.5-0.9-1.1-1.1L32,44.5c-1.3-0.6-2.8,0.1-2.8,1v19.9c0,0.5,0.5,1,0.9,1.2l8,2.9
		c1.2,0.5,2.8-0.2,2.8-1.2V48.5z M26.3,52.5c0-0.5-0.5-0.9-1.1-1.1l-7.8-2.9c-1.3-0.6-2.8,0.1-2.8,1v21.2c0,0.5,0.5,1,0.9,1.2l8,2.9
		c1.2,0.5,2.8-0.2,2.8-1.2V52.5z M26.3,4.2c0-0.5-0.5-0.9-1.1-1.1l-7.8-2.9c-1.3-0.6-2.8,0.1-2.8,1v21.2c0,0.5,0.5,1,0.9,1.2l8,2.9
		c1.2,0.5,2.8-0.2,2.8-1.2V4.2z M11.7,5c0-0.5-0.5-0.9-1.1-1.1L2.8,1C1.5,0.5,0,1.1,0,2.1V70c0,0.5,0.5,1,0.9,1.2l8,2.9
		c1.2,0.5,2.8-0.2,2.8-1.2V5z">
  </path>
 </g>
</svg>