<svg xmlns="http://www.w3.org/2000/svg" width="97" height="94" fill="none" viewBox="0 0 97 94" class="card-features_ccard-mascot__ATdGJ" role="presentation"><path fill="#FF5C16" d="m90.504 89.91-20.803-6.181-15.688 9.358-10.946-.005-15.698-9.353-20.794 6.18L.25 68.603l6.325-23.648L.25 24.96 6.575.18l32.493 19.37h18.944L90.504.18l6.325 24.78-6.325 19.994 6.325 23.648z"></path><path fill="#FF5C16" d="m6.578.18 32.493 19.385-1.293 13.303zm20.797 68.43 14.297 10.867-14.297 4.25zm13.15-17.968-2.748-17.767L20.19 44.956l-.01-.005v.01l.055 12.435 7.132-6.754zM90.5.18 58.008 19.565l1.287 13.303zM69.71 68.61 55.415 79.476l14.296 4.25zm7.185-23.65h.005zv-.009l-.004.005-17.589-12.081-2.747 17.767h13.154l7.136 6.754z"></path><path fill="#E34807" d="m27.37 83.727-20.795 6.18L.25 68.61h27.12zM40.522 50.64l3.972 25.685-5.505-14.28-18.762-4.646 7.136-6.758zM69.71 83.727l20.795 6.18L96.83 68.61H69.71zM56.558 50.64l-3.972 25.685 5.505-14.28 18.762-4.646-7.141-6.758z"></path><path fill="#FF8D5D" d="m.25 68.602 6.325-23.649h13.603l.05 12.44 18.762 4.645 5.505 14.281-2.83 3.145L27.37 68.597H.25zm96.581 0-6.325-23.649H76.903l-.05 12.44-18.762 4.645-5.505 14.281 2.83 3.145 14.296-10.867H96.83zM58.013 19.547H39.069L37.781 32.85l6.715 43.452h8.09l6.72-43.452z"></path><path fill="#661800" d="M6.575.18.25 24.96l6.325 19.994h13.603l17.597-12.086zm30.021 55.621h-6.162l-3.356 3.282 11.92 2.95-2.402-6.236zM90.505.18l6.325 24.78-6.325 19.994H76.902L59.305 32.868zM60.494 55.801h6.17l3.356 3.287-11.934 2.954 2.408-6.245zM54.01 84.61l1.406-5.137-2.829-3.145h-8.094l-2.829 3.145 1.406 5.136"></path><path fill="#C0C4CD" d="M54.004 84.61v8.48H43.063v-8.48z"></path><path fill="#E7EBF6" d="m27.375 83.719 15.702 9.367v-8.481l-1.405-5.136zm42.335 0-15.702 9.367v-8.481l1.405-5.136z"></path></svg>